<svg xmlns="http://www.w3.org/2000/svg" width="220" height="85.838"><path d="M78.64 53.86v-13.5h-2.432v-3.97h2.431v-3.936c0-2.352.58-4.034 1.742-5.049 1.161-1.015 3.075-1.523 5.742-1.523.293 0 .635.027 1.024.08.39.054.897.151 1.523.294v4.042a4.819 4.819 0 0 0-.958-.365 3.925 3.925 0 0 0-.957-.115c-.957 0-1.64.235-2.048.703-.409.47-.612 1.28-.612 2.431v3.437h3.482v3.971h-3.482V53.86h-5.456ZM110.701 45.186c0 2.684-.985 4.915-2.956 6.696-1.973 1.781-4.47 2.671-7.495 2.671-3.05 0-5.564-.89-7.542-2.67-1.978-1.782-2.967-4.013-2.967-6.697 0-2.67.996-4.902 2.986-6.696 1.991-1.792 4.498-2.689 7.523-2.689 3.037 0 5.539.885 7.503 2.654 1.966 1.77 2.949 4.013 2.949 6.731Zm-5.55-.035c0-1.425-.448-2.562-1.34-3.41-.894-.85-2.094-1.274-3.6-1.274-1.505 0-2.698.422-3.579 1.265-.88.843-1.32 1.983-1.32 3.419 0 1.424.44 2.564 1.32 3.42.88.854 2.074 1.28 3.579 1.28 1.494 0 2.69-.426 3.59-1.28.9-.856 1.35-1.996 1.35-3.42ZM120.082 40.877c.548-1.698 1.335-2.968 2.363-3.811 1.027-.843 2.3-1.265 3.819-1.265.345 0 .912.06 1.703.179l.345.053-.823 5.45a7.294 7.294 0 0 0-1.235-.348 7.16 7.16 0 0 0-1.31-.116c-1.66 0-2.853.395-3.58 1.185-.727.79-1.091 2.11-1.091 3.962v7.693h-5.456V36.39h5.38l-.115 4.488ZM149.12 46.38h-14.108c.216 1.258.707 2.2 1.474 2.822.765.624 1.805.935 3.119.935.995 0 1.854-.178 2.575-.534.721-.356 1.323-.896 1.81-1.62l4.401 2.047c-1.02 1.532-2.258 2.669-3.712 3.41-1.456.742-3.185 1.113-5.19 1.113-3.036 0-5.44-.842-7.214-2.528-1.775-1.686-2.66-3.954-2.66-6.803 0-2.742.927-4.998 2.783-6.767 1.858-1.77 4.234-2.654 7.13-2.654 2.987 0 5.349.829 7.083 2.485 1.736 1.656 2.604 3.915 2.604 6.775 0 .155-.007.325-.02.508-.012.185-.038.455-.076.81Zm-5.4-3.063c-.152-1.104-.582-1.938-1.291-2.503-.709-.563-1.675-.845-2.9-.845s-2.204.282-2.938.845c-.735.565-1.203 1.399-1.408 2.503h8.538ZM172.069 53.86h-5.283l.076-2.512c-.739 1.104-1.63 1.914-2.67 2.43-1.04.517-2.306.775-3.799.775-2.489 0-4.496-.86-6.02-2.581-1.526-1.722-2.287-3.996-2.287-6.821 0-2.956.749-5.259 2.248-6.91 1.5-1.65 3.583-2.475 6.25-2.475 1.365 0 2.566.291 3.598.873 1.034.581 2.005 1.501 2.91 2.76-.063-.428-.112-.9-.142-1.416a27.92 27.92 0 0 1-.049-1.772v-9.955h5.168v27.603Zm-4.977-8.762c0-1.567-.424-2.808-1.272-3.723-.849-.913-1.995-1.371-3.436-1.371-1.481 0-2.645.449-3.494 1.345s-1.272 2.134-1.272 3.713c0 1.58.416 2.813 1.253 3.704.836.89 1.994 1.335 3.474 1.335 1.506 0 2.673-.439 3.503-1.318.83-.878 1.244-2.106 1.244-3.685ZM196.188 53.574c0 1.84-.12 3.135-.354 3.882a4.523 4.523 0 0 1-1.216 1.942c-.816.818-1.863 1.424-3.14 1.816-1.276.392-2.826.588-4.65.588-3.05 0-5.366-.452-6.949-1.354-1.582-.902-2.444-2.273-2.584-4.114h5.991c.089.677.421 1.175.996 1.496.574.321 1.423.48 2.545.48 1.48 0 2.549-.355 3.206-1.068.658-.712.986-1.899.986-3.561v-2.493c-.726 1.08-1.604 1.882-2.631 2.404-1.027.523-2.243.783-3.647.783-2.577 0-4.639-.84-6.182-2.519-1.545-1.68-2.316-3.945-2.316-6.795 0-2.896.752-5.164 2.258-6.802 1.506-1.639 3.585-2.458 6.24-2.458 1.365 0 2.58.294 3.647.882 1.065.587 1.956 1.451 2.67 2.591V36.39h5.13v17.185Zm-4.94-8.476c0-1.544-.42-2.76-1.262-3.651-.843-.89-1.99-1.336-3.445-1.336-1.494 0-2.661.443-3.504 1.327-.842.884-1.263 2.104-1.263 3.66s.414 2.766 1.243 3.632c.83.867 1.991 1.3 3.485 1.3s2.658-.433 3.494-1.3c.835-.866 1.253-2.077 1.253-3.632ZM219.905 46.38h-14.108c.216 1.258.707 2.2 1.474 2.822.766.624 1.805.935 3.119.935.995 0 1.854-.178 2.575-.534.72-.356 1.323-.896 1.81-1.62l4.401 2.047c-1.02 1.532-2.258 2.669-3.712 3.41-1.456.742-3.184 1.113-5.19 1.113-3.036 0-5.44-.842-7.214-2.528-1.775-1.686-2.66-3.954-2.66-6.803 0-2.742.927-4.998 2.783-6.767 1.858-1.77 4.233-2.654 7.13-2.654 2.987 0 5.349.829 7.083 2.485 1.736 1.656 2.604 3.915 2.604 6.775 0 .155-.007.325-.02.508-.012.185-.038.455-.075.81Zm-5.4-3.063c-.152-1.104-.582-1.938-1.291-2.503-.709-.563-1.675-.845-2.9-.845s-2.204.282-2.938.845c-.735.565-1.203 1.399-1.408 2.503h8.538ZM57.588 57.382l4.655-28.696L74.358 1.852l-4.656 28.696-12.114 26.834z" fill="#7e191e"/><path fill="#7e191e" d="m57.588 57.382-8.016-27.944L49.097 0l8.016 27.944.475 29.438z"/><path fill="#7e191e" d="m57.588 57.382-19.015-21.99L25.774 8.878l19.015 21.99 12.8 26.514zM57.588 57.382 31.08 45.446 8.304 26.79l26.508 11.935 22.776 18.657zM57.581 57.38l-29.069.328L0 50.368l29.069-.327 28.512 7.34z"/><path d="M76.816 83.135V79.24h-1.12v-1.205l1.19-.084.182-2.129h1.36v2.129h2.002v1.29h-2.003v3.906c0 .925.322 1.402 1.12 1.402.267 0 .603-.084.826-.183l.295 1.191c-.434.14-.953.28-1.513.28-1.737 0-2.34-1.078-2.34-2.703ZM82.028 81.818c0-2.508 1.708-4.062 3.515-4.062 2.045 0 3.138 1.47 3.138 3.656 0 .308-.028.63-.07.812H83.61c.126 1.471 1.05 2.354 2.381 2.354.687 0 1.275-.21 1.835-.575l.561 1.023c-.715.476-1.598.812-2.606.812-2.087 0-3.753-1.485-3.753-4.02Zm5.266-.7c0-1.331-.602-2.101-1.723-2.101-.966 0-1.82.742-1.975 2.101h3.698ZM91.16 83.85v-9.358h1.597v9.442c0 .433.197.588.393.588.07 0 .126 0 .265-.029l.21 1.219c-.195.07-.475.126-.868.126-1.162 0-1.596-.742-1.596-1.988ZM99.32 80.459c0-3.571 1.303-5.309 3.335-5.309 2.016 0 3.334 1.751 3.334 5.309 0 3.586-1.318 5.379-3.334 5.379-2.031 0-3.334-1.793-3.334-5.379Zm5.128 0c0-2.955-.742-4.034-1.793-4.034s-1.793 1.079-1.793 4.034c0 2.984.742 4.104 1.793 4.104s1.793-1.12 1.793-4.104ZM108.037 84.325h2.254v-7.172h-1.848v-1.022c.966-.182 1.652-.42 2.241-.784h1.218v8.978h2.017v1.331h-5.882v-1.33ZM116.144 84.718c3.04-2.69 4.608-4.693 4.608-6.388 0-1.12-.602-1.89-1.75-1.89-.813 0-1.485.518-2.032 1.148l-.91-.897c.883-.952 1.793-1.54 3.138-1.54 1.89 0 3.11 1.232 3.11 3.095 0 1.99-1.583 4.049-3.769 6.136a17.234 17.234 0 0 1 1.681-.099h2.577v1.373h-6.653v-.938ZM124.715 80.459c0-3.571 1.303-5.309 3.334-5.309 2.017 0 3.334 1.751 3.334 5.309 0 3.586-1.317 5.379-3.334 5.379-2.031 0-3.334-1.793-3.334-5.379Zm5.127 0c0-2.955-.742-4.034-1.793-4.034s-1.793 1.079-1.793 4.034c0 2.984.742 4.104 1.793 4.104s1.793-1.12 1.793-4.104ZM133.84 81.103h3.698v1.192h-3.698v-1.192ZM140.461 83.751c.406.463 1.037.77 1.696.77 1.246 0 2.325-1.008 2.422-3.95-.602.743-1.484 1.205-2.268 1.205-1.724 0-2.886-1.079-2.886-3.236 0-2.045 1.4-3.39 3.068-3.39 1.975 0 3.572 1.597 3.572 5.002 0 4.062-1.85 5.686-3.838 5.686-1.191 0-2.031-.476-2.634-1.092l.868-.995Zm4.091-4.398c-.154-2.032-.925-2.956-2.046-2.956-.881 0-1.582.798-1.582 2.143 0 1.317.588 2.073 1.666 2.073.631 0 1.345-.364 1.962-1.26ZM147.812 84.466l.77-1.051c.59.588 1.332 1.106 2.41 1.106 1.163 0 2.046-.826 2.046-2.199s-.786-2.157-1.962-2.157c-.659 0-1.05.196-1.653.589l-.784-.519.308-4.888h5.224v1.358h-3.823l-.238 2.647c.433-.223.854-.364 1.414-.364 1.724 0 3.138 1.023 3.138 3.278 0 2.284-1.667 3.572-3.474 3.572-1.625 0-2.647-.658-3.376-1.372ZM156.45 84.466l.771-1.051c.589.588 1.331 1.106 2.41 1.106 1.162 0 2.045-.826 2.045-2.199s-.785-2.157-1.962-2.157c-.658 0-1.05.196-1.652.589l-.784-.519.307-4.888h5.225v1.358h-3.823l-.238 2.647c.433-.223.854-.364 1.414-.364 1.723 0 3.137 1.023 3.137 3.278 0 2.284-1.667 3.572-3.473 3.572-1.625 0-2.648-.658-3.376-1.372ZM165.79 81.103h3.698v1.192h-3.698v-1.192ZM171.717 83.093c0-1.359.897-2.27 1.849-2.774v-.07c-.77-.546-1.387-1.316-1.387-2.41 0-1.61 1.247-2.66 2.942-2.66 1.792 0 2.914 1.12 2.914 2.731 0 1.05-.715 1.947-1.359 2.423v.07c.924.532 1.737 1.331 1.737 2.732 0 1.527-1.345 2.703-3.335 2.703-1.932 0-3.36-1.149-3.36-2.745Zm5.17 0c0-1.261-1.136-1.738-2.537-2.312-.714.49-1.204 1.26-1.204 2.157 0 1.023.854 1.738 1.96 1.738 1.052 0 1.78-.616 1.78-1.583Zm-.21-5.085c0-.952-.576-1.667-1.584-1.667-.84 0-1.47.575-1.47 1.499 0 1.12.98 1.638 2.128 2.087.617-.575.925-1.233.925-1.92ZM185.12 76.705h-4.847v-1.358h6.64v.98c-2.424 3.026-2.802 5.295-2.97 9.33h-1.654c.183-3.768.841-6.178 2.83-8.952ZM193.9 76.705h-4.847v-1.358h6.64v.98c-2.424 3.026-2.802 5.295-2.97 9.33h-1.653c.182-3.768.84-6.178 2.83-8.952Z" fill="#333"/></svg>