<svg xmlns="http://www.w3.org/2000/svg" width="340" height="95.512"><g fill="#fff"><path d="M121.533 83.237V62.375h-3.757v-6.137h3.757v-6.082c0-3.634.898-6.234 2.692-7.802C126.02 40.784 128.977 40 133.1 40c.453 0 .982.04 1.583.124.601.083 1.386.233 2.353.454v6.247a7.449 7.449 0 0 0-1.48-.564 6.064 6.064 0 0 0-1.479-.178c-1.48 0-2.535.363-3.166 1.086-.631.726-.945 1.977-.945 3.757v5.312h5.382v6.137h-5.383v20.862h-8.43ZM171.084 69.833c0 4.147-1.523 7.596-4.57 10.348-3.048 2.753-6.908 4.128-11.583 4.128-4.713 0-8.598-1.375-11.655-4.128-3.057-2.752-4.585-6.2-4.585-10.348 0-4.128 1.538-7.577 4.615-10.348 3.076-2.77 6.951-4.156 11.625-4.156 4.694 0 8.56 1.367 11.596 4.101 3.038 2.735 4.557 6.203 4.557 10.403Zm-8.579-.054c0-2.202-.691-3.96-2.071-5.271-1.38-1.312-3.235-1.968-5.563-1.968-2.325 0-4.17.651-5.53 1.955-1.36 1.302-2.04 3.064-2.04 5.284 0 2.201.68 3.963 2.04 5.284 1.36 1.321 3.205 1.98 5.53 1.98 2.31 0 4.157-.659 5.548-1.98 1.39-1.321 2.086-3.083 2.086-5.284ZM185.58 63.173c.848-2.624 2.065-4.587 3.653-5.89 1.587-1.302 3.556-1.954 5.902-1.954.533 0 1.41.093 2.632.276l.533.082-1.271 8.422a11.287 11.287 0 0 0-1.909-.537 11.072 11.072 0 0 0-2.025-.179c-2.566 0-4.41.61-5.533 1.83-1.123 1.221-1.686 3.263-1.686 6.124v11.89h-8.432V56.238h8.314l-.177 6.935ZM230.457 71.677h-21.802c.333 1.945 1.093 3.4 2.278 4.363 1.183.964 2.79 1.445 4.82 1.445 1.538 0 2.865-.276 3.98-.826 1.114-.55 2.045-1.385 2.796-2.504l6.803 3.164c-1.577 2.367-3.49 4.125-5.738 5.27-2.249 1.147-4.92 1.72-8.019 1.72-4.693 0-8.41-1.301-11.15-3.907-2.743-2.605-4.112-6.11-4.112-10.513 0-4.238 1.434-7.724 4.303-10.459 2.87-2.734 6.542-4.101 11.02-4.101 4.615 0 8.264 1.28 10.945 3.84 2.683 2.559 4.024 6.05 4.024 10.472 0 .238-.011.5-.03.784-.02.285-.06.703-.118 1.252Zm-8.343-4.733c-.236-1.706-.901-2.995-1.997-3.867-1.095-.87-2.588-1.307-4.482-1.307s-3.406.436-4.54 1.307c-1.136.872-1.859 2.16-2.175 3.867h13.194ZM265.925 83.237h-8.165l.118-3.881c-1.142 1.706-2.518 2.959-4.126 3.757-1.607.798-3.565 1.196-5.872 1.196-3.846 0-6.948-1.329-9.303-3.99-2.358-2.66-3.535-6.174-3.535-10.54 0-4.57 1.158-8.128 3.475-10.68 2.317-2.55 5.536-3.824 9.659-3.824 2.11 0 3.964.45 5.56 1.349 1.598.898 3.098 2.32 4.498 4.266a24.791 24.791 0 0 1-.22-2.19 43.2 43.2 0 0 1-.076-2.737V40.578h7.987v42.659Zm-7.692-13.54c0-2.422-.654-4.34-1.966-5.753-1.311-1.412-3.083-2.12-5.31-2.12-2.29 0-4.088.694-5.4 2.079-1.311 1.385-1.966 3.298-1.966 5.737 0 2.442.644 4.35 1.936 5.726 1.292 1.376 3.083 2.063 5.37 2.063 2.327 0 4.131-.678 5.413-2.037 1.284-1.357 1.923-3.255 1.923-5.696ZM303.2 82.796c0 2.844-.184 4.845-.548 6a6.988 6.988 0 0 1-1.878 3c-1.263 1.266-2.88 2.202-4.853 2.807-1.972.606-4.369.909-7.188.909-4.713 0-8.292-.698-10.738-2.093-2.445-1.393-3.778-3.513-3.994-6.357h9.26c.136 1.046.65 1.816 1.538 2.312.887.496 2.199.743 3.934.743 2.287 0 3.939-.55 4.955-1.652 1.016-1.1 1.523-2.935 1.523-5.504V79.11c-1.123 1.67-2.48 2.908-4.067 3.715-1.587.807-3.466 1.21-5.635 1.21-3.984 0-7.17-1.297-9.555-3.893-2.388-2.596-3.579-6.096-3.579-10.5 0-4.477 1.162-7.981 3.49-10.514 2.327-2.532 5.54-3.798 9.644-3.798 2.11 0 3.987.454 5.635 1.363 1.647.908 3.023 2.243 4.127 4.005v-4.459h7.929v26.558Zm-7.634-13.1c0-2.385-.65-4.266-1.951-5.642-1.303-1.376-3.077-2.064-5.325-2.064-2.308 0-4.112.684-5.415 2.05-1.3 1.367-1.951 3.253-1.951 5.656s.64 4.275 1.921 5.614c1.284 1.34 3.077 2.01 5.385 2.01s4.108-.67 5.4-2.01c1.29-1.339 1.936-3.21 1.936-5.614ZM339.852 71.677H318.05c.334 1.945 1.094 3.4 2.279 4.363 1.183.964 2.79 1.445 4.82 1.445 1.538 0 2.865-.276 3.98-.826 1.114-.55 2.045-1.385 2.796-2.504l6.803 3.164c-1.577 2.367-3.49 4.125-5.738 5.27-2.249 1.147-4.92 1.72-8.019 1.72-4.694 0-8.41-1.301-11.15-3.907-2.743-2.605-4.112-6.11-4.112-10.513 0-4.238 1.433-7.724 4.302-10.459 2.872-2.734 6.543-4.101 11.02-4.101 4.615 0 8.265 1.28 10.946 3.84 2.682 2.559 4.024 6.05 4.024 10.472 0 .238-.01.5-.03.784a37.4 37.4 0 0 1-.118 1.252Zm-8.343-4.733c-.236-1.706-.901-2.995-1.997-3.867-1.095-.87-2.588-1.307-4.482-1.307s-3.406.436-4.54 1.307c-1.135.872-1.859 2.16-2.176 3.867h13.194ZM89 88.68l7.194-44.348 18.722-41.47-7.194 44.348L89 88.68zM89 88.68 76.612 45.496 75.878 0l12.388 43.186L89 88.681z"/><path d="M89 88.68 59.613 54.697 39.833 13.72 69.22 47.704 89 88.681z"/><path d="M89 88.68 48.033 70.236 12.834 41.402l40.967 18.446L89 88.68zM88.99 88.68l-44.926.506L0 77.843l44.925-.507L88.989 88.68z"/></g></svg>